<svg id="Layer_1" data-name="Layer 1" xmlns="http://www.w3.org/2000/svg" viewBox="0 0 7926.5 3494.59"><defs><style>.cls-1{fill:#fff;}</style></defs><title>academia1</title><polygon class="cls-1" points="766.71 914.94 1487.54 2163.47 1487.54 1331.12 766.71 914.94"/><polygon class="cls-1" points="45.87 2163.47 766.71 2579.64 766.71 914.94 45.87 1331.12 45.87 2163.47"/><path class="cls-1" d="M2246.56,1284.36H2373l341.51,781.7H2570.33l-78.72-187.38h-367l-79.84,187.38h-139.7Zm195.15,473.46-134.16-310.46-133.06,310.46Z"/><path class="cls-1" d="M2719.9,1680.2V1678c0-220.65,165.21-401.39,400.27-401.39,143,0,229.52,49.9,303.81,120.86l-87.59,100.9c-62.1-57.66-128.62-96.46-217.33-96.46-148.58,0-256.13,122-256.13,273.87V1678c0,151.9,107.55,276.09,256.13,276.09,95.36,0,156.34-38.81,222.87-100.9l87.6,88.7c-81,84.27-169.65,137.49-314.9,137.49C2888.43,2079.37,2719.9,1903.07,2719.9,1680.2Z"/><path class="cls-1" d="M3807.28,1284.36h126.4l341.51,781.7H4131.05l-78.73-187.38h-367l-79.83,187.38H3465.77Zm195.15,473.46-134.17-310.46-133.05,310.46Z"/><path class="cls-1" d="M4362.44,1289.91h289.39c243.94,0,412.47,167.43,412.47,385.86V1678c0,218.43-168.53,388.07-412.47,388.07H4362.44Zm289.39,652c163,0,269.44-109.77,269.44-261.68V1678c0-151.91-106.44-263.9-269.44-263.9h-153v527.79Z"/><path class="cls-1" d="M5190.48,1289.91h575.46v122H5326.86v201.8h389.19v122H5326.86V1944.1h444.63v122h-581Z"/><path class="cls-1" d="M5900.43,1289.91h145.25l236.18,367,236.17-367h145.25v776.15H6526.9V1509.45l-245,365.9h-4.44L6034.6,1511.67v554.39H5900.43Z"/><path class="cls-1" d="M6834.91,1289.91H6971.3v776.15H6834.91Z"/><path class="cls-1" d="M7401.05,1284.36h126.4L7869,2066.06H7724.82l-78.73-187.38h-367l-79.83,187.38H7059.54Zm195.15,473.46L7462,1447.36,7329,1757.82Z"/></svg>